<?xml version="1.0" encoding="UTF-8"?>
<svg id="Layer_1" xmlns="http://www.w3.org/2000/svg" version="1.1" viewBox="0 0 181.2 55">
  <!-- Generator: Adobe Illustrator 29.7.1, SVG Export Plug-In . SVG Version: 2.1.1 Build 8)  -->
  <defs>
    <style>
      .st0 {
        fill-rule: evenodd;
      }
    </style>
  </defs>
  <path class="st0" d="M27.4,0c15.1,0,27.4,12.3,27.4,27.5s-12.3,27.5-27.4,27.5S0,42.7,0,27.5,12.3,0,27.4,0ZM26.3,17.7c-7,0-12.1,5.3-12.2,11.8v.3s0,0,0,0v.3c.2,6.4,5.2,11.7,12.1,11.7s5.9-1,7.7-2.6l.2-.2v2.2h5.5v-22.9h-5.5v2.1l-.2-.2c-1.8-1.6-4.6-2.6-7.6-2.6ZM137.2,22.6v9.8c0,2.4,1.1,3.6,3,3.6s3.1-1.2,3.1-3.6v-9.8h4.9v17.5h-4.9v-2.5c-1.1,1.5-2.6,2.8-5.1,2.8-3.7,0-5.9-2.5-5.9-6.5v-11.3h4.9ZM177.1,18.1v4.5h4.1v4.2h-4.1v7.5c0,1.1.5,1.7,1.6,1.7s1.7-.2,2.4-.6v4c-1,.6-2.2,1-3.9,1-3,0-5.1-1.2-5.1-5.3v-8.3h-2.1v-4.2h2.1v-4.5h4.9ZM90.5,17l9.8,23h-5.2l-2.1-5.1h-9.6l-2.1,5.1h-5.1l9.8-23h4.6ZM121.3,17.2c5.4,0,8.7,3.2,8.7,7.9h0c0,5.4-4.1,8.1-9.2,8.1h-3.8v6.9h-5v-22.9h9.3ZM161.9,22.2c3.7,0,5.9,2.5,5.9,6.5v11.3h-4.9v-9.8c0-2.4-1.1-3.6-3-3.6s-3.1,1.2-3.1,3.6v9.8h-4.9v-17.5h4.9v2.5c1.1-1.5,2.6-2.8,5.1-2.8ZM26.1,22.3c4.1,0,6.9,3.2,7.1,7.2v.2s0,0,0,0v.2c-.1,3.9-2.8,7.1-7,7.1s-6.9-3.2-7-7.2v-.2s0,0,0,0v-.2c.1-3.9,2.8-7.1,6.9-7.1ZM88.2,23.1l-3,7.4h6.1l-3-7.4ZM120.8,21.8h-3.9v7h4c2.5,0,4-1.5,4-3.5h0c0-2.3-1.6-3.5-4.1-3.5ZM86.6,9.6l3.7,5.8h-3.8l-4.2-3.9,4.3-1.9ZM21,6.8c-.8,0-1.4.3-1.9.8-.5.5-.8,1.2-.8,2s.2,1.2.6,1.7c.4.4.9.8,1.8,1.2,1.3.5,5.1,1.8,5.3,1.9h0s3.7,0,3.7,0l-5.1-5.5-.2-.2c-.6-.6-1.1-1.1-1.6-1.3-.6-.3-1.1-.5-1.7-.5Z"/>
</svg>