<?xml version="1.0" encoding="UTF-8"?>
<svg id="Layer_1" xmlns="http://www.w3.org/2000/svg" version="1.1" viewBox="0 0 96 39.7">
  <!-- Generator: Adobe Illustrator 29.7.1, SVG Export Plug-In . SVG Version: 2.1.1 Build 8)  -->
  <defs>
    <style>
      .st0 {
        fill: #4461ad;
        fill-rule: evenodd;
      }
    </style>
  </defs>
  <path class="st0" d="M28.6,20.4c.2-.1.3-.2.6-.2s.4.2.6.4h0s7.8,7.9,7.8,7.9c-3.1,6.9-10,11.2-18,11.2S0,30.9,0,19.9,8.9,0,19.8,0s14.8,4.5,17.9,11.3l-7.9,7.9h0c-.2.1-.4.3-.7.2-.2,0-.4,0-.5-.2h0l-8.5-8.5-9.1,9.1,9.1,9.1,8.6-8.6h0Z"/>
  <path class="st0" d="M55,12.4c-1.3-.8-2.8-1.1-4.2-1.1-5,0-8.9,3.9-8.9,8.9s4,8.7,8.8,8.7,3.1-.4,4.4-1.2v-2.5c-1.2,1.1-2.8,1.7-4.5,1.7-3.7,0-6.6-3.1-6.6-6.8s2.9-6.9,6.6-6.9,3.2.6,4.4,1.7v-2.4Z"/>
  <path class="st0" d="M65.1,11.2c-4.8,0-8.8,3.9-8.8,8.8s3.9,8.8,8.8,8.8,8.8-3.8,8.8-8.8-4-8.8-8.8-8.8ZM65.1,26.8c-3.6,0-6.7-3-6.7-6.8s2.8-6.8,6.7-6.8,6.7,3.1,6.7,6.8-3.1,6.8-6.7,6.8Z"/>
  <path class="st0" d="M78,21.4h1.2c3.2,0,5.9-1.4,5.9-4.9s-1.6-4.9-6.8-4.9h-2.4v16.8h2.1v-7ZM78,13.5h.6c2.1,0,4.6.3,4.6,2.9s-2.3,3.1-4.5,3.1h-.7v-6Z"/>
  <path class="st0" d="M87,28.4h9v-1.9h-6.9v-5.3s6.7,0,6.7,0v-1.9h-6.7v-5.8h6.9v-1.9h-9v16.8Z"/>
</svg>