<?xml version="1.0" encoding="UTF-8"?>
<svg id="Layer_1" xmlns="http://www.w3.org/2000/svg" version="1.1" viewBox="0 0 357.1 448.3">
  <!-- Generator: Adobe Illustrator 29.7.1, SVG Export Plug-In . SVG Version: 2.1.1 Build 8)  -->
  <defs>
    <style>
      .st0 {
        fill: none;
        stroke: #9195a3;
        stroke-miterlimit: 10;
        stroke-width: 3px;
      }

      .st1 {
        fill: #1b2022;
      }

      .st2 {
        fill: #9195a3;
      }

      .st3 {
        fill: #dc5726;
      }

      .st4 {
        fill: #1d4d90;
      }
    </style>
  </defs>
  <path class="st3" d="M179.5,50.3C84.7,50.3,7.9,127.1,7.9,221.9s76.8,171.6,171.6,171.6,171.6-76.8,171.6-171.6S274.3,50.3,179.5,50.3ZM179.5,329.7c-59.6,0-107.8-48.3-107.8-107.8s48.3-107.8,107.8-107.8,107.8,48.3,107.8,107.8-48.3,107.8-107.8,107.8Z"/>
  <path class="st4" d="M180.3,50.3c-.2,0-.5,0-.7,0-38.3,0-73.6,12.5-102.2,33.7l38.2,51.1c17.9-13.2,40-21,64-21s.5,0,.7,0v-63.8Z"/>
  <g>
    <path class="st1" d="M110.4,413.1h2.5v17.7h9.3v2.4h-11.8v-20.1Z"/>
    <path class="st1" d="M124.4,412.7h2.5v20.5h-2.5v-20.5Z"/>
    <path class="st1" d="M133.1,432.6c-1.1-.7-1.9-1.6-2.5-2.8s-.9-2.6-.9-4.2.3-2.9.9-4.1,1.4-2.1,2.5-2.8c1.1-.7,2.4-1,3.8-1s2.8.3,3.9,1,1.9,1.6,2.5,2.8c.6,1.2.9,2.6.9,4.1s-.3,3-.9,4.2-1.4,2.1-2.5,2.8c-1.1.7-2.4,1-3.9,1s-2.8-.3-3.9-1ZM140.4,429.7c.8-1,1.2-2.4,1.2-4.1s-.4-3.1-1.2-4.1c-.8-1-1.9-1.5-3.4-1.5s-2.7.5-3.4,1.5-1.2,2.4-1.2,4.1.4,3.1,1.2,4.1c.8,1,1.9,1.5,3.4,1.5s2.7-.5,3.5-1.5Z"/>
    <path class="st1" d="M159.7,418.1v15.2c0,.9,0,1.7-.2,2.3-.3,1.6-1,2.8-2.1,3.5s-2.6,1.2-4.5,1.2-2.4-.3-3.5-.8c-1.1-.6-1.9-1.4-2.5-2.5l2.3-1.2c.3.7.8,1.2,1.5,1.6s1.4.5,2.2.5c2.9,0,4.3-1.5,4.2-4.6v-1.5c-1.2,1.2-2.6,1.8-4.4,1.8s-2.6-.3-3.6-1c-1-.7-1.8-1.7-2.3-2.9-.5-1.2-.8-2.6-.8-4.1s.3-2.9.8-4.1c.5-1.2,1.3-2.1,2.4-2.8,1-.7,2.2-1,3.6-1,2,0,3.6.7,4.7,2.1v-1.7h2.2ZM156.4,429.8c.7-1,1.1-2.4,1.1-4.1s-.4-3.1-1.1-4.1c-.7-1-1.8-1.5-3.2-1.5s-2.6.5-3.3,1.6c-.8,1.1-1.1,2.4-1.1,4.1s.4,3,1.1,4.1c.8,1.1,1.8,1.6,3.3,1.6s2.6-.5,3.3-1.5Z"/>
    <path class="st1" d="M176.1,418.1v15.1h-2.2v-1.9c-.6.7-1.3,1.3-2.1,1.7-.9.4-1.8.6-2.9.6s-2.7-.4-3.6-1.1c-.9-.7-1.5-1.7-1.9-2.7-.4-1.1-.5-2.2-.5-3.3v-8.3h2.5v7.5c0,1.6.3,3,.9,4,.6,1,1.7,1.6,3.2,1.6s2.3-.4,3-1.3c.7-.9,1.1-2.2,1.1-3.9v-7.9h2.5Z"/>
    <path class="st1" d="M182.7,430c.8.8,1.9,1.3,3.3,1.3s1.9-.2,2.6-.7,1.3-1.1,1.7-2l2.4.8c-.6,1.3-1.5,2.3-2.7,3.1-1.2.7-2.5,1.1-4,1.1s-2.8-.3-3.9-1-2-1.6-2.6-2.8c-.6-1.2-.9-2.6-.9-4.1s.3-3,.9-4.3c.6-1.2,1.4-2.2,2.5-2.8,1.1-.7,2.4-1,3.8-1s2.8.3,3.9,1c1.1.7,1.9,1.7,2.4,3s.8,2.8.7,4.6h-11.5c0,1.6.5,2.8,1.3,3.6ZM182.9,421.1c-.8.8-1.3,1.8-1.4,3.3h8.9c-.3-2.9-1.8-4.4-4.3-4.4s-2.4.4-3.2,1.1Z"/>
    <path class="st1" d="M200.5,418.3c.6-.2,1.1-.3,1.7-.3s.8,0,1.1.1v2.3c-.4,0-.8-.1-1.1-.1-.9,0-1.7.2-2.3.7-1.2.9-1.8,2.4-1.8,4.6v7.6h-2.5v-15.1h2.2v2.4c.3-.6.8-1.1,1.3-1.5.4-.3.9-.6,1.5-.8Z"/>
  </g>
  <g>
    <path class="st1" d="M194.2,32.5l-3.6-7.4h-5.9v7.4h-2.5V12.4h8c.5,0,1,0,1.5.1,1.6.2,2.8.9,3.7,2.1s1.3,2.5,1.3,4.2-.3,2.5-.9,3.6c-.6,1-1.5,1.8-2.6,2.2l3.9,8h-2.8ZM190.1,22.7c.5,0,.9,0,1.3-.1.9-.2,1.6-.7,2.1-1.4.5-.7.7-1.5.7-2.5s-.2-1.7-.7-2.5c-.5-.7-1.1-1.2-2.1-1.4-.4,0-.8-.1-1.3-.1h-5.4v8h5.4Z"/>
    <path class="st1" d="M202.8,29.2c.8.8,1.9,1.3,3.3,1.3s1.9-.2,2.6-.7,1.3-1.1,1.7-2l2.4.8c-.6,1.3-1.5,2.3-2.7,3.1-1.2.7-2.5,1.1-4,1.1s-2.8-.3-3.9-1-2-1.6-2.6-2.8c-.6-1.2-.9-2.6-.9-4.1s.3-3,.9-4.3c.6-1.2,1.4-2.2,2.5-2.8,1.1-.7,2.4-1,3.8-1s2.8.3,3.9,1c1.1.7,1.9,1.7,2.4,3s.8,2.8.7,4.6h-11.5c0,1.6.5,2.8,1.3,3.6ZM203,20.3c-.8.8-1.3,1.8-1.4,3.3h8.9c-.3-2.9-1.8-4.4-4.3-4.4s-2.4.4-3.2,1.1Z"/>
    <path class="st1" d="M216.9,31.7c-1.1-.8-1.8-1.9-2.1-3.3l2.5-.4c.2.8.7,1.5,1.4,2,.7.5,1.7.7,2.7.7s1.8-.2,2.4-.6c.6-.4.9-1,.9-1.8s0-.8-.3-1c-.2-.3-.6-.5-1.2-.7-.6-.2-1.5-.5-2.8-.9-1.4-.4-2.4-.7-3.2-1.1-.8-.4-1.3-.8-1.6-1.3-.3-.5-.5-1.1-.5-1.8,0-1.3.5-2.4,1.6-3.2s2.5-1.2,4.2-1.2,3.1.4,4.3,1.2,1.8,1.9,1.9,3.2l-2.5.4c-.1-.8-.5-1.5-1.2-1.9s-1.6-.7-2.7-.7-1.7.2-2.2.6c-.6.4-.9.9-.9,1.5s.1.7.3,1c.2.3.6.5,1.2.7.6.2,1.5.5,2.7.8,1.3.3,2.4.7,3.2,1.1.8.4,1.3.9,1.6,1.4.3.5.5,1.2.5,2,0,1.5-.5,2.6-1.6,3.4-1.1.8-2.5,1.3-4.4,1.3s-3.3-.4-4.4-1.2Z"/>
    <path class="st1" d="M233.9,26.7v.9c0,.4,0,.8,0,1.1,0,.3.1.5.2.7.4.7,1.2,1.1,2.5,1.1s1.2,0,1.8-.2v2.1c-.7.2-1.5.3-2.3.3s-1.9-.2-2.6-.5-1.3-.9-1.7-1.6c-.2-.4-.3-.9-.4-1.3s0-1,0-1.6v-8.3h-3.1v-2h3.1v-4.2h2.5v4.2h4.6v2h-4.6v7.2Z"/>
    <path class="st1" d="M253.1,23.1v9.3h-2.2v-2.4c-1.2,1.9-3.1,2.8-5.6,2.8s-2-.2-2.8-.6c-.8-.4-1.4-.9-1.8-1.6s-.6-1.4-.6-2.3c0-2.2,1.2-3.7,3.7-4.4,1.3-.3,3.2-.7,5.7-1h1c0-1.4-.3-2.3-.9-2.8-.6-.6-1.5-.9-2.8-.9s-1.8.2-2.4.6c-.7.4-1.1,1.1-1.4,2l-2.4-.7c.4-1.4,1.1-2.4,2.1-3.1,1.1-.7,2.4-1.1,4.1-1.1s2.6.2,3.5.7c1,.5,1.7,1.2,2.1,2.2.3.8.5,1.8.5,3.2ZM248.9,29.8c.8-.7,1.3-1.5,1.5-2.5.2-.5.3-1.3.3-2.4-.5,0-1,.1-1.3.2-.8.1-1.6.2-2.4.3-.8.1-1.4.3-1.9.4-1.6.5-2.3,1.3-2.3,2.5s.3,1.3.8,1.7c.5.5,1.3.7,2.3.7s2.3-.3,3.2-1Z"/>
  </g>
  <line class="st0" x1="114.6" y1="20.7" x2="114.6" y2="50.5"/>
  <line class="st0" x1="113.4" y1="22.2" x2="169.5" y2="22.2"/>
  <line class="st0" x1="272.2" y1="426.5" x2="272.2" y2="386.4"/>
  <line class="st0" x1="273.4" y1="425" x2="217.3" y2="425"/>
  <g>
    <path class="st2" d="M269.7,15.1l-3.8,2.3v-2.8l3.8-2.3h2.5v20.1h-2.5V15.1Z"/>
    <path class="st2" d="M280.4,32c-1-.6-1.8-1.4-2.4-2.4-.6-1-.9-2.2-.9-3.5v-7.4c0-1.3.3-2.4.9-3.5.6-1,1.4-1.8,2.4-2.4,1-.6,2.2-.9,3.5-.9s2.4.3,3.5.9c1,.6,1.8,1.4,2.4,2.4.6,1,.9,2.2.9,3.5v7.4c0,1.3-.3,2.4-.9,3.5-.6,1-1.4,1.8-2.4,2.4-1,.6-2.2.9-3.5.9s-2.4-.3-3.5-.9ZM286,29.9c.7-.4,1.2-.9,1.5-1.5.4-.7.6-1.4.6-2.1v-7.7c0-.8-.2-1.5-.6-2.1-.4-.7-.9-1.2-1.5-1.5-.7-.4-1.4-.6-2.2-.6s-1.5.2-2.1.6c-.7.4-1.2.9-1.5,1.5-.4.7-.6,1.4-.6,2.1v7.7c0,.8.2,1.5.6,2.1.4.7.9,1.2,1.5,1.5.7.4,1.4.6,2.1.6s1.5-.2,2.2-.6Z"/>
    <path class="st2" d="M296.3,21.3c-.8-.4-1.4-1.1-1.8-1.8-.5-.8-.7-1.6-.7-2.5s.2-1.7.7-2.5c.5-.8,1.1-1.4,1.9-1.8.8-.5,1.6-.7,2.5-.7s1.7.2,2.5.7c.8.4,1.4,1.1,1.8,1.8s.7,1.6.7,2.5-.2,1.8-.7,2.5-1.1,1.4-1.8,1.8c-.8.4-1.6.7-2.5.7s-1.8-.2-2.5-.7ZM294.6,30.8l18.5-18.4,1.7,1.7-18.5,18.4-1.7-1.7ZM300.8,19c.6-.6.9-1.2.9-2s-.3-1.4-.9-2c-.6-.6-1.2-.9-2-.9s-1.4.3-2,.9-.8,1.2-.8,2,.3,1.4.8,2c.6.6,1.2.8,2,.8s1.4-.3,2-.8ZM308.1,32.2c-.8-.4-1.4-1.1-1.8-1.8-.5-.8-.7-1.6-.7-2.5s.2-1.7.7-2.5c.5-.8,1.1-1.4,1.9-1.8s1.6-.7,2.5-.7,1.7.2,2.5.7c.8.4,1.4,1.1,1.8,1.8.5.8.7,1.6.7,2.5s-.2,1.8-.7,2.5c-.5.8-1.1,1.4-1.8,1.8-.8.4-1.6.7-2.5.7s-1.7-.2-2.5-.7ZM312.6,29.8c.6-.6.9-1.2.9-2s-.3-1.4-.9-2c-.6-.6-1.2-.9-2-.9s-1.4.3-2,.9c-.6.6-.8,1.2-.8,2s.3,1.4.8,2c.6.6,1.2.8,2,.8s1.4-.3,2-.8Z"/>
  </g>
  <g>
    <path class="st2" d="M54.6,414.3c1,.6,1.9,1.5,2.5,2.5.6,1.1.9,2.3.9,3.6v6.7c0,1.4-.3,2.6-.9,3.7-.6,1.1-1.4,2-2.5,2.6-1.1.6-2.3.9-3.6.9s-2.1-.2-3.1-.7c-1-.5-1.8-1.1-2.4-2l1.8-1.6c.4.6.9,1.1,1.6,1.4.7.3,1.3.5,2.1.5s1.6-.2,2.3-.6c.7-.4,1.2-1,1.6-1.7.4-.7.6-1.4.6-2.2v-2.8c-.6.7-1.3,1.2-2.1,1.5s-1.7.6-2.6.6-2.3-.3-3.3-.9c-1-.6-1.8-1.4-2.4-2.4-.6-1-.9-2.1-.9-3.4s.3-2.4.9-3.4c.6-1,1.5-1.8,2.5-2.4,1.1-.6,2.2-.9,3.4-.9s2.4.3,3.5.9ZM53.3,423.8c.7-.4,1.2-.9,1.6-1.6.4-.7.6-1.4.6-2.2s-.2-1.5-.6-2.2c-.4-.7-.9-1.2-1.6-1.6-.7-.4-1.4-.6-2.2-.6s-1.5.2-2.2.6-1.2.9-1.6,1.6c-.4.7-.6,1.4-.6,2.2s.2,1.5.6,2.2c.4.7.9,1.2,1.6,1.6.7.4,1.4.6,2.2.6s1.5-.2,2.2-.6Z"/>
    <path class="st2" d="M64.7,433.4c-1-.6-1.8-1.4-2.4-2.4-.6-1-.9-2.2-.9-3.5v-7.4c0-1.3.3-2.4.9-3.5.6-1,1.4-1.8,2.4-2.4,1-.6,2.2-.9,3.5-.9s2.4.3,3.5.9c1,.6,1.8,1.4,2.4,2.4.6,1,.9,2.2.9,3.5v7.4c0,1.3-.3,2.4-.9,3.5-.6,1-1.4,1.8-2.4,2.4-1,.6-2.2.9-3.5.9s-2.4-.3-3.5-.9ZM70.4,431.3c.7-.4,1.2-.9,1.5-1.5.4-.7.6-1.4.6-2.1v-7.7c0-.8-.2-1.5-.6-2.1-.4-.7-.9-1.2-1.5-1.5-.7-.4-1.4-.6-2.2-.6s-1.5.2-2.1.6c-.7.4-1.2.9-1.5,1.5-.4.7-.6,1.4-.6,2.1v7.7c0,.8.2,1.5.6,2.1.4.7.9,1.2,1.5,1.5.7.4,1.4.6,2.1.6s1.5-.2,2.2-.6Z"/>
    <path class="st2" d="M80.7,422.7c-.8-.4-1.4-1.1-1.8-1.8-.5-.8-.7-1.6-.7-2.5s.2-1.7.7-2.5c.5-.8,1.1-1.4,1.9-1.8.8-.5,1.6-.7,2.5-.7s1.7.2,2.5.7c.8.4,1.4,1.1,1.8,1.8s.7,1.6.7,2.5-.2,1.8-.7,2.5-1.1,1.4-1.8,1.8c-.8.4-1.6.7-2.5.7s-1.8-.2-2.5-.7ZM79,432.2l18.5-18.4,1.7,1.7-18.5,18.4-1.7-1.7ZM85.2,420.3c.6-.6.9-1.2.9-2s-.3-1.4-.9-2c-.6-.6-1.2-.9-2-.9s-1.4.3-2,.9-.8,1.2-.8,2,.3,1.4.8,2c.6.6,1.2.8,2,.8s1.4-.3,2-.8ZM92.4,433.6c-.8-.4-1.4-1.1-1.8-1.8-.5-.8-.7-1.6-.7-2.5s.2-1.7.7-2.5c.5-.8,1.1-1.4,1.9-1.8s1.6-.7,2.5-.7,1.7.2,2.5.7c.8.4,1.4,1.1,1.8,1.8.5.8.7,1.6.7,2.5s-.2,1.8-.7,2.5c-.5.8-1.1,1.4-1.8,1.8-.8.4-1.6.7-2.5.7s-1.7-.2-2.5-.7ZM96.9,431.2c.6-.6.9-1.2.9-2s-.3-1.4-.9-2c-.6-.6-1.2-.9-2-.9s-1.4.3-2,.9c-.6.6-.8,1.2-.8,2s.3,1.4.8,2c.6.6,1.2.8,2,.8s1.4-.3,2-.8Z"/>
  </g>
</svg>